<svg xml:space="preserve" xmlns="http://www.w3.org/2000/svg" viewBox="0 0 2197.333 1024">
  <path d="M822.416 706.21c-190.109 0-368.773-34.036-503.08-95.84-65.056-29.935-116.08-64.74-151.658-103.446-36.487-39.695-54.987-81.754-54.987-125.007 0-43.254 18.5-85.313 54.987-125.008 35.577-38.706 86.602-73.511 151.658-103.447 134.307-61.804 312.971-95.84 503.08-95.84 190.11 0 368.773 34.036 503.08 95.84 65.057 29.936 116.081 64.74 151.658 103.447 36.487 39.695 54.987 81.754 54.987 125.008 0 43.253-18.5 85.312-54.987 125.007-35.577 38.706-86.6 73.51-151.658 103.447-134.307 61.803-312.97 95.84-503.08 95.84m0-657.093c-191.31 0-371.237 34.314-506.635 96.618-66.085 30.41-118.02 65.878-154.364 105.418-37.975 41.314-57.23 85.309-57.23 130.763 0 45.453 19.255 89.448 57.23 130.762 36.343 39.54 88.28 75.008 154.364 105.418 135.398 62.305 315.324 96.618 506.635 96.618 191.311 0 371.237-34.313 506.636-96.618 66.085-30.41 118.02-65.878 154.363-105.418 37.975-41.314 57.23-85.31 57.23-130.762 0-45.454-19.255-89.45-57.23-130.763-36.343-39.54-88.278-75.007-154.363-105.418-135.399-62.304-315.325-96.618-506.636-96.618" style="fill:#3c439b;fill-opacity:1;fill-rule:nonzero;stroke:none" transform="matrix(1.33333 0 0 -1.33333 0 1024)"/>
  <path d="M625.343 395.16v69.686c.97.266 1.843.751 2.559 1.415 2.118.98 3.595 3.11 3.595 5.596v15.23a6.18 6.18 0 0 1-4.912 6.046c1.408 13.732 13.042 24.48 27.141 24.48 14.137 0 25.791-10.808 27.147-24.593-2.616-.718-4.55-3.089-4.55-5.934v-15.229c0-1.602.626-3.049 1.626-4.146a6.169 6.169 0 0 1 4.097-3.632v-68.92zm114.242 97.95c-1.476 46.097-39.409 83.15-85.859 83.15-46.489 0-84.446-37.115-85.863-83.266a6.135 6.135 0 0 1-2.476-1.39c-2.118-.979-3.596-3.109-3.596-5.596V470.78c0-2.845 1.933-5.215 4.55-5.933V244.441c-2.617-.719-4.55-3.089-4.55-5.934v-15.229a6.178 6.178 0 0 1 6.178-6.178h55.745a6.179 6.179 0 0 1 6.179 6.178v15.23c0 2.844-1.934 5.214-4.55 5.933v91.716h56.703v-92.483c-2.617-.718-4.55-3.088-4.55-5.933v-15.229a6.178 6.178 0 0 1 6.178-6.179h55.745a6.178 6.178 0 0 1 6.178 6.18v15.228c0 2.845-1.933 5.215-4.55 5.933V464.08c2.617.72 4.55 3.09 4.55 5.934v15.23a6.132 6.132 0 0 1-1.626 4.145 6.18 6.18 0 0 1-4.386 3.722M1277.446 395.16v69.686c.97.266 1.843.751 2.56 1.415 2.117.98 3.594 3.11 3.594 5.596v15.23a6.178 6.178 0 0 1-4.912 6.045c1.408 13.732 13.042 24.481 27.14 24.481 14.138 0 25.792-10.808 27.149-24.593-2.617-.718-4.551-3.089-4.551-5.934v-15.229c0-1.602.626-3.049 1.627-4.147a6.168 6.168 0 0 1 4.096-3.63v-68.92zm120.255 74.853v15.23a6.129 6.129 0 0 1-1.627 4.145 6.178 6.178 0 0 1-4.386 3.722c-1.476 46.096-39.41 83.15-85.86 83.15-46.488 0-84.445-37.116-85.861-83.266a6.132 6.132 0 0 1-2.477-1.39c-2.118-.98-3.596-3.109-3.596-5.596V470.78c0-2.845 1.934-5.215 4.55-5.933V244.441c-2.616-.719-4.55-3.089-4.55-5.934v-15.229a6.179 6.179 0 0 1 6.178-6.178h55.746a6.178 6.178 0 0 1 6.178 6.178v15.23c0 2.844-1.934 5.214-4.55 5.933v91.716h56.703v-92.483c-2.617-.718-4.55-3.089-4.55-5.933v-15.229a6.178 6.178 0 0 1 6.178-6.179h55.745a6.18 6.18 0 0 1 6.179 6.18v15.228c0 2.845-1.934 5.215-4.55 5.933V464.08c2.616.72 4.55 3.09 4.55 5.934M525.647 243.777v220.507c.183.08.349.186.52.283 2.323.888 3.979 3.121 3.979 5.755v14.92c0 3.225-2.481 5.843-5.634 6.123-1.564 46.017-39.463 82.977-85.855 82.977-21.533 0-41.225-7.979-56.32-21.112-15.095 13.133-34.787 21.112-56.32 21.112-46.374 0-84.261-36.93-85.853-82.922h-1.053a6.178 6.178 0 0 1-6.178-6.178v-14.92c0-2.825 1.908-5.182 4.498-5.917V243.777a6.177 6.177 0 0 1-4.881-6.036v-15.23a6.178 6.178 0 0 1 6.178-6.178h55.746a6.178 6.178 0 0 1 6.177 6.178v15.23a6.176 6.176 0 0 1-4.881 6.036v219.986h1.84a6.178 6.178 0 0 1 6.179 6.178v15.23a6.177 6.177 0 0 1-4.913 6.045c1.409 13.732 13.042 24.481 27.14 24.481 13.43 0 24.597-9.76 26.847-22.555-.037-.684-.047-1.375-.07-2.064-2.572-.746-4.465-3.093-4.465-5.907v-15.23a6.178 6.178 0 0 1 6.177-6.178h.163V243.777a6.176 6.176 0 0 1-4.88-6.036v-15.23a6.178 6.178 0 0 1 6.177-6.178h55.746a6.178 6.178 0 0 1 6.178 6.178v15.23a6.177 6.177 0 0 1-4.881 6.036v220.507c.182.08.347.186.52.283 2.322.888 3.978 3.121 3.978 5.755v14.92c0 3.225-2.481 5.843-5.634 6.123-.02.593-.03 1.188-.061 1.777 2.25 12.794 13.417 22.555 26.846 22.555 14.136 0 25.792-10.808 27.148-24.593-2.617-.718-4.551-3.089-4.551-5.933v-15.23c0-3.369 2.702-6.098 6.054-6.165V243.777a6.177 6.177 0 0 1-4.881-6.036v-15.23a6.179 6.179 0 0 1 6.178-6.178h55.745a6.179 6.179 0 0 1 6.179 6.178v15.23a6.177 6.177 0 0 1-4.882 6.036M864.206 275.1c-10.195 0-19.089 5.63-23.77 13.937v12.99a6.133 6.133 0 0 1 1.172 3.599v15.23a6.13 6.13 0 0 1-1.173 3.598v139.038a6.172 6.172 0 0 1 2.706 5.109v15.229a6.173 6.173 0 0 1-2.706 5.109v9.162c4.246 9.56 13.816 16.256 24.934 16.256 14.137 0 25.792-10.808 27.15-24.593-2.619-.718-4.552-3.09-4.552-5.934V468.6a6.18 6.18 0 0 1 4.956-6.054V327.034h-.31a6.177 6.177 0 0 1-6.178-6.178v-15.23a6.178 6.178 0 0 1 4.912-6.046c-1.409-13.731-13.042-24.48-27.14-24.48m87.021 214.754c-1.476 46.097-39.409 83.148-85.859 83.148a85.726 85.726 0 0 1-22.206-2.925 6.153 6.153 0 0 1-4.356 1.8h-55.746a6.177 6.177 0 0 1-6.178-6.177v-15.23c0-2.844 1.933-5.215 4.55-5.933v-39.112a85.736 85.736 0 0 1-1.926-15.687c-2.573-.746-4.467-3.094-4.467-5.908V468.6a6.178 6.178 0 0 1 6.178-6.177h.215v-135.39h-1.748a6.177 6.177 0 0 1-6.177-6.177v-15.23c0-2.951 2.072-5.41 4.84-6.023a85.563 85.563 0 0 1 3.085-20.237v-35.691c-2.617-.72-4.55-3.09-4.55-5.933v-15.23a6.178 6.178 0 0 1 6.178-6.178h55.746c2.067 0 3.886 1.025 5.008 2.585a85.802 85.802 0 0 1 20.391-2.465c46.49 0 84.446 37.114 85.863 83.265 2.574.746 4.467 3.093 4.467 5.907v15.23a6.16 6.16 0 0 1-2.61 5.029v136.909c2.406.844 4.142 3.112 4.142 5.807v15.229c0 2.952-2.073 5.41-4.84 6.024M1046.584 510.864h28.673c.132-3.295 2.825-5.932 6.153-5.932h15.23a6.18 6.18 0 0 1 6.046 4.912c13.731-1.408 24.48-13.042 24.48-27.14 0-13.796-10.302-25.203-23.609-27.007-.666 2.694-3.08 4.699-5.98 4.699h-15.23a6.133 6.133 0 0 1-2.177-.415c-2.234-.455-4.004-2.13-4.65-4.287h-28.936zm139.971-139.206c-.617 20.979-8.772 40.094-21.867 54.714 13.14 15.096 21.124 34.793 21.124 56.332 0 46.489-37.115 84.446-83.265 85.863-.745 2.573-3.094 4.466-5.907 4.466h-15.23c-2.312 0-4.305-1.285-5.364-3.167h-25.523c-.99 2.089-3.1 3.544-5.567 3.544h-55.745a6.179 6.179 0 0 1-6.179-6.178v-15.23c0-2.844 1.934-5.215 4.55-5.933V245.207c-2.616-.718-4.55-3.09-4.55-5.933v-15.23a6.18 6.18 0 0 1 6.18-6.178h55.744a6.179 6.179 0 0 1 6.178 6.179v15.229c0 2.844-1.934 5.215-4.55 5.933v151.485h28.851c.67-2.688 3.081-4.687 5.975-4.687h15.23c.77 0 1.498.158 2.176.415 2.08.423 3.764 1.898 4.512 3.839 13.063-1.261 23.444-11.77 24.53-24.883-2.4-.847-4.133-3.113-4.133-5.804v-15.23c0-2.728 1.781-5.017 4.234-5.835V243.809c-2.889-.518-5.084-3.03-5.084-6.068v-15.23a6.178 6.178 0 0 1 6.178-6.177h55.745a6.178 6.178 0 0 1 6.178 6.178v15.229c0 2.648-1.674 4.889-4.015 5.768V344.31a6.176 6.176 0 0 1 4.865 6.032v15.229c0 3.1-2.293 5.645-5.27 6.086M1508 570.729c-15.29 0-27.729-12.439-27.729-27.729s12.44-27.729 27.73-27.729c15.288 0 27.728 12.439 27.728 27.729s-12.44 27.729-27.729 27.729m0-60c-17.795 0-32.27 14.477-32.27 32.271s14.475 32.271 32.27 32.271c17.794 0 32.271-14.477 32.271-32.271s-14.477-32.271-32.27-32.271" style="fill:#3c439b;fill-opacity:1;fill-rule:nonzero;stroke:none" transform="matrix(1.33333 0 0 -1.33333 0 1024)"/>
  <path d="M1513.423 553.804c0 2.57-.739 4.61-2.217 6.115-1.477 1.505-3.563 2.258-6.26 2.258h-5.09v-18.21h3.922c2.756 0 5.052.88 6.89 2.646 1.836 1.764 2.755 4.16 2.755 7.19m15.754-31.67h-11.444c-2.534 3.973-4.823 7.407-6.868 10.303a241.046 241.046 0 0 1-6.657 8.955h-4.352v-13.478c0-.7.11-1.313.33-1.842.218-.53.687-.934 1.407-1.213.358-.14.987-.27 1.887-.39a23.34 23.34 0 0 1 2.275-.21v-2.125h-17.97v2.126c.48.04 1.173.109 2.081.21.91.099 1.543.229 1.903.389.598.259 1.033.639 1.302 1.138.27.499.405 1.138.405 1.917v30.729c0 .699-.1 1.318-.3 1.857-.199.539-.669.949-1.407 1.228-.499.18-1.149.345-1.948.494-.798.15-1.477.245-2.036.285v2.126h19.617c1.798 0 3.485-.184 5.063-.554 1.576-.37 3.005-.963 4.282-1.782a8.997 8.997 0 0 0 2.965-3.13c.74-1.287 1.108-2.84 1.108-4.657 0-1.637-.25-3.085-.748-4.343a8.969 8.969 0 0 0-2.216-3.264c-.899-.86-1.977-1.602-3.235-2.231a24.512 24.512 0 0 0-4.163-1.603 598.497 598.497 0 0 0 5.226-7.01 1162.61 1162.61 0 0 1 5.107-6.917c.878-1.198 1.672-2.082 2.381-2.65a12.543 12.543 0 0 1 2.111-1.394c.52-.26 1.168-.46 1.947-.598.78-.14 1.427-.22 1.947-.24z" style="fill:#3c439b;fill-opacity:1;fill-rule:nonzero;stroke:none" transform="matrix(1.33333 0 0 -1.33333 0 1024)"/>
</svg>