<svg
   version="1.1"
   id="svg9"
   xml:space="preserve"
   width="2197.3333"
   height="1024"
   viewBox="0 0 2197.3333 1024"
   sodipodi:docname="logo.svg"
   inkscape:version="1.1.1 (c3084ef, 2021-09-22)"
   xmlns:inkscape="http://www.inkscape.org/namespaces/inkscape"
   xmlns:sodipodi="http://sodipodi.sourceforge.net/DTD/sodipodi-0.dtd"
   xmlns="http://www.w3.org/2000/svg"
   xmlns:svg="http://www.w3.org/2000/svg"><defs
     id="defs13"><clipPath
       clipPathUnits="userSpaceOnUse"
       id="clipPath23"><path
         d="M 0,768 H 1648 V 0 H 0 Z"
         id="path21" /></clipPath></defs><sodipodi:namedview
     id="namedview11"
     pagecolor="#ffffff"
     bordercolor="#666666"
     borderopacity="1.0"
     inkscape:pageshadow="2"
     inkscape:pageopacity="0.0"
     inkscape:pagecheckerboard="0"
     showgrid="false"
     inkscape:zoom="0.39820997"
     inkscape:cx="1098.6666"
     inkscape:cy="511.03693"
     inkscape:window-width="1440"
     inkscape:window-height="847"
     inkscape:window-x="0"
     inkscape:window-y="205"
     inkscape:window-maximized="1"
     inkscape:current-layer="g15" /><g
     id="g15"
     inkscape:groupmode="layer"
     inkscape:label="Madra Logo Final Final"
     transform="matrix(1.3333333,0,0,-1.3333333,0,1024)"><path
       d="m 822.4163,706.2109 c -190.109,0 -368.773,-34.037 -503.08,-95.84 -65.056,-29.936 -116.081,-64.741 -151.658,-103.447 -36.487,-39.695 -54.987,-81.754 -54.987,-125.007 0,-43.254 18.5,-85.313 54.987,-125.008 35.577,-38.706 86.602,-73.511 151.658,-103.447 134.307,-61.804 312.971,-95.84 503.08,-95.84 190.109,0 368.773,34.036 503.08,95.84 65.057,29.936 116.081,64.741 151.658,103.447 36.487,39.695 54.987,81.754 54.987,125.008 0,43.253 -18.5,85.312 -54.987,125.007 -35.577,38.706 -86.601,73.511 -151.658,103.447 -134.307,61.803 -312.971,95.84 -503.08,95.84 m 0,-657.093 c -191.311,0 -371.237,34.314 -506.635,96.618 -66.085,30.411 -118.021,65.878 -154.364,105.418 -37.975,41.314 -57.23,85.309 -57.23,130.763 0,45.453 19.255,89.448 57.23,130.762 36.343,39.54 88.279,75.008 154.364,105.418 135.398,62.305 315.324,96.618 506.635,96.618 191.311,0 371.237,-34.313 506.636,-96.618 66.085,-30.41 118.02,-65.878 154.363,-105.418 37.975,-41.314 57.23,-85.309 57.23,-130.762 0,-45.454 -19.255,-89.449 -57.23,-130.763 -36.343,-39.54 -88.278,-75.007 -154.363,-105.418 -135.399,-62.304 -315.325,-96.618 -506.636,-96.618"
       style="fill:#3c439b;fill-opacity:1;fill-rule:nonzero;stroke:none"
       id="path27" /><path
       d="m 625.343,395.1592 v 69.687 c 0.97,0.266 1.843,0.751 2.559,1.415 2.118,0.98 3.595,3.109 3.595,5.596 v 15.229 c 0,2.978 -2.107,5.462 -4.912,6.047 1.408,13.732 13.042,24.48 27.141,24.48 14.137,0 25.791,-10.808 27.147,-24.593 -2.616,-0.718 -4.55,-3.089 -4.55,-5.934 v -15.229 c 0,-1.602 0.626,-3.049 1.626,-4.146 0.714,-1.774 2.23,-3.119 4.097,-3.632 v -68.92 z m 114.242,97.951 c -1.476,46.097 -39.409,83.149 -85.859,83.149 -46.489,0 -84.446,-37.114 -85.863,-83.265 -0.936,-0.271 -1.781,-0.745 -2.476,-1.39 -2.118,-0.979 -3.596,-3.109 -3.596,-5.596 v -15.229 c 0,-2.845 1.933,-5.215 4.55,-5.933 v -220.405 c -2.617,-0.719 -4.55,-3.089 -4.55,-5.934 v -15.229 c 0,-3.412 2.766,-6.178 6.178,-6.178 h 55.745 c 3.412,0 6.179,2.766 6.179,6.178 v 15.229 c 0,2.845 -1.934,5.215 -4.55,5.934 v 91.716 h 56.703 v -92.483 c -2.617,-0.718 -4.55,-3.088 -4.55,-5.933 v -15.229 c 0,-3.413 2.766,-6.179 6.178,-6.179 h 55.745 c 3.412,0 6.178,2.766 6.178,6.179 v 15.229 c 0,2.845 -1.933,5.215 -4.55,5.933 v 220.405 c 2.617,0.719 4.55,3.089 4.55,5.934 v 15.229 c 0,1.602 -0.625,3.048 -1.626,4.146 -0.752,1.867 -2.384,3.278 -4.386,3.722"
       style="fill:#3c439b;fill-opacity:1;fill-rule:nonzero;stroke:none"
       id="path31" /><path
       d="m 1277.4456,395.1592 v 69.687 c 0.97,0.266 1.843,0.751 2.56,1.415 2.117,0.98 3.594,3.109 3.594,5.596 v 15.229 c 0,2.978 -2.107,5.462 -4.912,6.046 1.408,13.732 13.042,24.481 27.141,24.481 14.137,0 25.791,-10.808 27.148,-24.593 -2.617,-0.718 -4.551,-3.089 -4.551,-5.934 v -15.229 c 0,-1.602 0.626,-3.049 1.627,-4.147 0.714,-1.773 2.229,-3.118 4.096,-3.631 v -68.92 z m 120.255,74.854 v 15.229 c 0,1.603 -0.626,3.049 -1.627,4.146 -0.751,1.867 -2.384,3.278 -4.386,3.722 -1.476,46.096 -39.409,83.149 -85.859,83.149 -46.489,0 -84.446,-37.115 -85.862,-83.265 -0.937,-0.271 -1.782,-0.745 -2.477,-1.39 -2.118,-0.98 -3.596,-3.109 -3.596,-5.596 v -15.229 c 0,-2.845 1.934,-5.215 4.55,-5.933 v -220.405 c -2.616,-0.719 -4.55,-3.089 -4.55,-5.934 v -15.229 c 0,-3.412 2.767,-6.178 6.178,-6.178 h 55.746 c 3.412,0 6.178,2.766 6.178,6.178 v 15.229 c 0,2.845 -1.934,5.215 -4.55,5.934 v 91.716 h 56.703 v -92.483 c -2.617,-0.718 -4.55,-3.089 -4.55,-5.933 v -15.229 c 0,-3.413 2.766,-6.179 6.178,-6.179 h 55.745 c 3.412,0 6.179,2.766 6.179,6.179 v 15.229 c 0,2.845 -1.934,5.215 -4.55,5.933 v 220.405 c 2.616,0.719 4.55,3.089 4.55,5.934"
       style="fill:#3c439b;fill-opacity:1;fill-rule:nonzero;stroke:none"
       id="path35" /><path
       d="m 525.6467,243.7773 v 220.507 c 0.183,0.079 0.349,0.186 0.521,0.283 2.322,0.888 3.978,3.121 3.978,5.755 v 14.92 c 0,3.225 -2.481,5.843 -5.634,6.123 -1.564,46.017 -39.463,82.977 -85.855,82.977 -21.533,0 -41.225,-7.979 -56.32,-21.112 -15.095,13.133 -34.787,21.112 -56.32,21.112 -46.374,0 -84.261,-36.93 -85.853,-82.922 h -1.053 c -3.412,0 -6.178,-2.766 -6.178,-6.178 v -14.92 c 0,-2.825 1.908,-5.182 4.498,-5.917 v -220.628 c -2.788,-0.597 -4.881,-3.07 -4.881,-6.036 v -15.23 c 0,-3.412 2.766,-6.178 6.178,-6.178 h 55.746 c 3.411,0 6.177,2.766 6.177,6.178 v 15.23 c 0,2.966 -2.092,5.439 -4.881,6.036 v 219.986 h 1.841 c 3.412,0 6.178,2.766 6.178,6.178 v 15.23 c 0,2.978 -2.108,5.461 -4.913,6.045 1.409,13.732 13.042,24.481 27.141,24.481 13.429,0 24.596,-9.761 26.846,-22.555 -0.037,-0.684 -0.047,-1.375 -0.069,-2.064 -2.573,-0.746 -4.466,-3.093 -4.466,-5.907 v -15.23 c 0,-3.412 2.766,-6.178 6.177,-6.178 h 0.163 v -219.986 c -2.788,-0.597 -4.88,-3.07 -4.88,-6.036 v -15.23 c 0,-3.412 2.766,-6.178 6.177,-6.178 h 55.746 c 3.412,0 6.178,2.766 6.178,6.178 v 15.23 c 0,2.966 -2.093,5.439 -4.881,6.036 v 220.507 c 0.182,0.079 0.347,0.186 0.52,0.283 2.322,0.888 3.978,3.121 3.978,5.755 v 14.92 c 0,3.225 -2.481,5.843 -5.634,6.123 -0.02,0.593 -0.029,1.188 -0.061,1.777 2.25,12.794 13.417,22.555 26.846,22.555 14.136,0 25.792,-10.808 27.148,-24.593 -2.617,-0.718 -4.551,-3.089 -4.551,-5.933 v -15.23 c 0,-3.369 2.702,-6.098 6.054,-6.165 v -219.999 c -2.788,-0.597 -4.881,-3.07 -4.881,-6.036 v -15.23 c 0,-3.412 2.767,-6.178 6.178,-6.178 h 55.745 c 3.412,0 6.179,2.766 6.179,6.178 v 15.23 c 0,2.966 -2.093,5.439 -4.882,6.036"
       style="fill:#3c439b;fill-opacity:1;fill-rule:nonzero;stroke:none"
       id="path39" /><path
       d="m 864.2063,275.0996 c -10.195,0 -19.089,5.631 -23.771,13.937 v 12.991 c 0.731,1.015 1.173,2.252 1.173,3.598 v 15.23 c 0,1.347 -0.442,2.583 -1.173,3.598 v 139.038 c 1.632,1.112 2.706,2.984 2.706,5.109 v 15.229 c 0,2.124 -1.074,3.997 -2.706,5.109 v 9.162 c 4.246,9.561 13.816,16.256 24.934,16.256 14.137,0 25.792,-10.808 27.149,-24.593 -2.618,-0.718 -4.551,-3.089 -4.551,-5.934 v -15.229 c 0,-2.993 2.13,-5.487 4.956,-6.055 v -135.512 h -0.311 c -3.412,0 -6.177,-2.766 -6.177,-6.178 v -15.23 c 0,-2.977 2.107,-5.462 4.912,-6.046 -1.409,-13.731 -13.042,-24.48 -27.141,-24.48 m 87.022,214.754 c -1.476,46.097 -39.409,83.148 -85.859,83.148 -7.678,0 -15.118,-1.027 -22.206,-2.925 -1.116,1.112 -2.656,1.8 -4.356,1.8 h -55.746 c -3.412,0 -6.178,-2.765 -6.178,-6.177 v -15.23 c 0,-2.844 1.933,-5.215 4.55,-5.933 v -39.112 c -1.11,-5.077 -1.761,-10.321 -1.926,-15.687 -2.573,-0.746 -4.467,-3.094 -4.467,-5.908 v -15.229 c 0,-3.412 2.766,-6.178 6.178,-6.178 h 0.215 v -135.389 h -1.748 c -3.412,0 -6.177,-2.766 -6.177,-6.178 v -15.23 c 0,-2.951 2.072,-5.41 4.839,-6.023 0.224,-6.987 1.283,-13.763 3.086,-20.237 v -35.691 c -2.617,-0.719 -4.55,-3.089 -4.55,-5.933 v -15.23 c 0,-3.412 2.766,-6.178 6.178,-6.178 h 55.746 c 2.067,0 3.886,1.025 5.008,2.585 6.54,-1.598 13.366,-2.465 20.391,-2.465 46.489,0 84.446,37.114 85.863,83.265 2.574,0.746 4.467,3.093 4.467,5.907 v 15.23 c 0,2.079 -1.036,3.91 -2.611,5.029 v 136.909 c 2.407,0.844 4.143,3.112 4.143,5.807 v 15.229 c 0,2.952 -2.073,5.411 -4.84,6.024"
       style="fill:#3c439b;fill-opacity:1;fill-rule:nonzero;stroke:none"
       id="path43" /><path
       d="m 1046.5842,510.8638 h 28.673 c 0.132,-3.295 2.825,-5.932 6.153,-5.932 h 15.23 c 2.977,0 5.461,2.108 6.046,4.912 13.731,-1.408 24.48,-13.042 24.48,-27.14 0,-13.796 -10.302,-25.203 -23.609,-27.007 -0.666,2.694 -3.081,4.699 -5.981,4.699 h -15.229 c -0.769,0 -1.497,-0.158 -2.177,-0.415 -2.234,-0.455 -4.004,-2.129 -4.65,-4.287 h -28.936 z m 139.971,-139.206 c -0.617,20.979 -8.772,40.094 -21.867,54.714 13.14,15.096 21.124,34.793 21.124,56.332 0,46.489 -37.115,84.446 -83.265,85.863 -0.745,2.573 -3.094,4.466 -5.907,4.466 h -15.23 c -2.312,0 -4.305,-1.285 -5.364,-3.167 h -25.523 c -0.99,2.089 -3.101,3.544 -5.567,3.544 h -55.745 c -3.412,0 -6.179,-2.766 -6.179,-6.178 v -15.229 c 0,-2.845 1.934,-5.216 4.55,-5.934 v -300.862 c -2.616,-0.718 -4.55,-3.089 -4.55,-5.933 v -15.229 c 0,-3.412 2.767,-6.179 6.179,-6.179 h 55.745 c 3.412,0 6.178,2.767 6.178,6.179 v 15.229 c 0,2.844 -1.934,5.215 -4.55,5.933 v 151.485 h 28.851 c 0.67,-2.688 3.081,-4.687 5.975,-4.687 h 15.23 c 0.769,0 1.498,0.158 2.176,0.415 2.08,0.423 3.764,1.898 4.512,3.839 13.063,-1.261 23.444,-11.77 24.53,-24.883 -2.401,-0.847 -4.133,-3.113 -4.133,-5.804 v -15.229 c 0,-2.729 1.781,-5.018 4.234,-5.836 v -100.698 c -2.889,-0.518 -5.084,-3.03 -5.084,-6.068 v -15.229 c 0,-3.412 2.766,-6.178 6.178,-6.178 h 55.745 c 3.412,0 6.178,2.766 6.178,6.178 v 15.229 c 0,2.648 -1.674,4.889 -4.015,5.768 v 100.802 c 2.78,0.603 4.865,3.071 4.865,6.032 v 15.229 c 0,3.101 -2.293,5.645 -5.271,6.086"
       style="fill:#3c439b;fill-opacity:1;fill-rule:nonzero;stroke:none"
       id="path47" /><path
       d="m 1508.0002,570.729 c -15.29,0 -27.729,-12.439 -27.729,-27.729 0,-15.29 12.439,-27.729 27.729,-27.729 15.289,0 27.729,12.439 27.729,27.729 0,15.29 -12.44,27.729 -27.729,27.729 m 0,-60 c -17.795,0 -32.271,14.477 -32.271,32.271 0,17.794 14.476,32.271 32.271,32.271 17.794,0 32.271,-14.477 32.271,-32.271 0,-17.794 -14.477,-32.271 -32.271,-32.271"
       style="fill:#3c439b;fill-opacity:1;fill-rule:nonzero;stroke:none"
       id="path51" /><path
       d="m 1513.4231,553.8037 c 0,2.571 -0.739,4.61 -2.217,6.115 -1.477,1.505 -3.563,2.258 -6.26,2.258 h -5.09 v -18.21 h 3.922 c 2.756,0 5.052,0.881 6.889,2.646 1.837,1.764 2.756,4.161 2.756,7.191 m 15.754,-31.671 h -11.444 c -2.534,3.973 -4.823,7.407 -6.868,10.303 -2.045,2.894 -4.263,5.88 -6.657,8.955 h -4.352 v -13.478 c 0,-0.699 0.109,-1.313 0.329,-1.842 0.219,-0.529 0.688,-0.934 1.408,-1.213 0.358,-0.14 0.987,-0.269 1.887,-0.389 0.898,-0.12 1.656,-0.19 2.275,-0.21 v -2.126 h -17.97 v 2.126 c 0.48,0.04 1.173,0.109 2.081,0.21 0.91,0.099 1.543,0.229 1.903,0.389 0.598,0.259 1.033,0.639 1.302,1.138 0.27,0.499 0.405,1.138 0.405,1.917 v 30.729 c 0,0.699 -0.101,1.318 -0.3,1.857 -0.199,0.539 -0.669,0.949 -1.407,1.228 -0.499,0.18 -1.149,0.345 -1.948,0.494 -0.798,0.15 -1.477,0.245 -2.036,0.285 v 2.126 h 19.617 c 1.798,0 3.485,-0.184 5.063,-0.554 1.576,-0.369 3.005,-0.963 4.282,-1.782 1.238,-0.799 2.227,-1.842 2.965,-3.129 0.739,-1.288 1.108,-2.841 1.108,-4.658 0,-1.637 -0.25,-3.085 -0.748,-4.343 -0.5,-1.258 -1.239,-2.346 -2.216,-3.264 -0.899,-0.859 -1.977,-1.602 -3.235,-2.231 -1.259,-0.63 -2.646,-1.164 -4.163,-1.603 2.096,-2.776 3.838,-5.112 5.226,-7.009 1.387,-1.897 3.09,-4.203 5.107,-6.918 0.878,-1.198 1.672,-2.082 2.381,-2.65 0.708,-0.57 1.412,-1.034 2.111,-1.394 0.519,-0.259 1.168,-0.459 1.947,-0.598 0.779,-0.14 1.427,-0.22 1.947,-0.24 z"
       style="fill:#3c439b;fill-opacity:1;fill-rule:nonzero;stroke:none"
       id="path55" /></g></svg>
